<?xml version='1.0' encoding='utf-8'?>
<!DOCTYPE svg PUBLIC '-//W3C//DTD SVG 1.1//EN' 'http://www.w3.org/Graphics/SVG/1.1/DTD/svg11.dtd'>
<svg version="1.1" xmlns="http://www.w3.org/2000/svg" viewBox="0 0 512 512" xmlns:xlink="http://www.w3.org/1999/xlink" enable-background="new 0 0 512 512">
  <g>
    <g>
      <path d="m357.6,276.4h-81.2v81.2c0,11.3-9.1,20.4-20.4,20.4-11.3,0-20.4-9.1-20.4-20.4v-81.2h-81.2c-11.3,0-20.4-9.1-20.4-20.4 0-11.3 9.1-20.4 20.4-20.4h81.2v-81.2c0-11.3 9.1-20.4 20.4-20.4 11.3,0 20.4,9.1 20.4,20.4v81.2h81.2c11.3,0 20.4,9.1 20.4,20.4 5.68434e-14,11.3-9.1,20.4-20.4,20.4zm-101.6-265.4c-135.1,0-245,109.9-245,245s109.9,245 245,245 245-109.9 245-245-109.9-245-245-245z"/>
    </g>
  </g>
</svg>
